<?xml version="1.0" encoding="UTF-8"?>
<svg width="16px" height="15px" viewBox="0 0 16 15" version="1.1" xmlns="http://www.w3.org/2000/svg" xmlns:xlink="http://www.w3.org/1999/xlink">
    <!-- Generator: sketchtool 50.2 (55047) - http://www.bohemiancoding.com/sketch -->
    <title>5714DFAA-8F0B-43B8-8F51-61FDFDA1D36F</title>
    <desc>Created with sketchtool.</desc>
    <defs></defs>
    <g id="Company-Admin" stroke="none" stroke-width="1" fill="none" fill-rule="evenodd">
        <g id="03-Company-Admin---0011-Dids---05-Call-flow---b.-Create" transform="translate(-1077.000000, -3807.000000)" fill="#FFB9BF" fill-rule="nonzero">
            <g id="Wizard-Content" transform="translate(320.000000, 305.000000)">
                <g id="Schedule" transform="translate(0.000000, 2831.000000)">
                    <g id="Any">
                        <g transform="translate(1.000000, 650.000000)">
                            <g id="Alert" transform="translate(699.000000, 5.000000)">
                                <g id="icon--alert" transform="translate(57.000000, 16.000000)">
                                    <path d="M15.608,14.239 L8.441,0.3365 C8.253,-0.0285 7.747,-0.0285 7.5585,0.3365 L0.392,14.239 C0.2145,14.584 0.456,15 0.8335,15 L15.167,15 C15.544,15 15.7855,14.584 15.608,14.239 Z M9,13 L7,13 L7,11 L9,11 L9,13 Z M9,10 L7,10 L7,5 L9,5 L9,10 Z" id="Shape"></path>
                                </g>
                            </g>
                        </g>
                    </g>
                </g>
            </g>
        </g>
    </g>
</svg>